<?xml version="1.0" encoding="UTF-8"?>
<svg xmlns="http://www.w3.org/2000/svg" xmlns:xlink="http://www.w3.org/1999/xlink" width="100pt" height="100pt" viewBox="0 0 100 100" version="1.1">
<g id="surface14741232">
<path style=" stroke:none;fill-rule:nonzero;fill:rgb(45.490196%,11.764706%,83.137256%);fill-opacity:1;" d="M 13 27 C 11.894531 27 11 27.894531 11 29 C 11 30.105469 11.894531 31 13 31 C 14.105469 31 15 30.105469 15 29 C 15 27.894531 14.105469 27 13 27 Z M 13 27 "/>
<path style=" stroke:none;fill-rule:nonzero;fill:rgb(100%,100%,100%);fill-opacity:1;" d="M 77 12 C 76.449219 12 76 12.449219 76 13 C 76 13.550781 76.449219 14 77 14 C 77.550781 14 78 13.550781 78 13 C 78 12.449219 77.550781 12 77 12 Z M 77 12 "/>
<path style=" stroke:none;fill-rule:nonzero;fill:rgb(80.000001%,80.000001%,80.000001%);fill-opacity:1;" d="M 50 13 C 29.566406 13 13 29.566406 13 50 C 13 70.433594 29.566406 87 50 87 C 70.433594 87 87 70.433594 87 50 C 87 29.566406 70.433594 13 50 13 Z M 50 13 "/>
<path style=" stroke:none;fill-rule:nonzero;fill:rgb(100%,100%,100%);fill-opacity:1;" d="M 83 11 C 80.789062 11 79 12.789062 79 15 C 79 17.210938 80.789062 19 83 19 C 85.210938 19 87 17.210938 87 15 C 87 12.789062 85.210938 11 83 11 Z M 83 11 "/>
<path style=" stroke:none;fill-rule:nonzero;fill:rgb(45.490196%,11.764706%,83.137256%);fill-opacity:1;" d="M 87 22 C 85.894531 22 85 22.894531 85 24 C 85 25.105469 85.894531 26 87 26 C 88.105469 26 89 25.105469 89 24 C 89 22.894531 88.105469 22 87 22 Z M 87 22 "/>
<path style=" stroke:none;fill-rule:nonzero;fill:rgb(40.000001%,40.000001%,40.000001%);fill-opacity:1;" d="M 81 74 C 79.894531 74 79 74.894531 79 76 C 79 77.105469 79.894531 78 81 78 C 82.105469 78 83 77.105469 83 76 C 83 74.894531 82.105469 74 81 74 Z M 15 59 C 12.789062 59 11 60.789062 11 63 C 11 65.210938 12.789062 67 15 67 C 17.210938 67 19 65.210938 19 63 C 19 60.789062 17.210938 59 15 59 Z M 15 59 "/>
<path style=" stroke:none;fill-rule:nonzero;fill:rgb(45.490196%,11.764706%,83.137256%);fill-opacity:1;" d="M 25 85 C 23.894531 85 23 85.894531 23 87 C 23 88.105469 23.894531 89 25 89 C 26.105469 89 27 88.105469 27 87 C 27 85.894531 26.105469 85 25 85 Z M 25 85 "/>
<path style=" stroke:none;fill-rule:nonzero;fill:rgb(100%,100%,100%);fill-opacity:1;" d="M 18.5 51 C 17.117188 51 16 52.117188 16 53.5 C 16 54.882812 17.117188 56 18.5 56 C 19.882812 56 21 54.882812 21 53.5 C 21 52.117188 19.882812 51 18.5 51 Z M 18.5 51 "/>
<path style=" stroke:none;fill-rule:nonzero;fill:rgb(100%,100%,100%);fill-opacity:1;" d="M 21 66 C 20.449219 66 20 66.449219 20 67 C 20 67.550781 20.449219 68 21 68 C 21.550781 68 22 67.550781 22 67 C 22 66.449219 21.550781 66 21 66 Z M 21 66 "/>
<path style=" stroke:none;fill-rule:nonzero;fill:rgb(100%,100%,100%);fill-opacity:1;" d="M 80 33 C 79.449219 33 79 33.449219 79 34 C 79 34.550781 79.449219 35 80 35 C 80.550781 35 81 34.550781 81 34 C 81 33.449219 80.550781 33 80 33 Z M 80 33 "/>
<path style=" stroke:none;fill-rule:nonzero;fill:rgb(45.490196%,11.764706%,83.137256%);fill-opacity:1;" d="M 35 72.300781 C 30.976562 72.300781 27.699219 69.027344 27.699219 65 L 27.699219 35 C 27.699219 30.976562 30.972656 27.699219 35 27.699219 L 65 27.699219 C 69.023438 27.699219 72.300781 30.972656 72.300781 35 L 72.300781 65 C 72.300781 69.023438 69.027344 72.300781 65 72.300781 Z M 35 72.300781 "/>
<path style=" stroke:none;fill-rule:nonzero;fill:rgb(27.843139%,16.862746%,16.078432%);fill-opacity:1;" d="M 65 28.398438 C 68.640625 28.398438 71.601562 31.359375 71.601562 35 L 71.601562 65 C 71.601562 68.640625 68.640625 71.601562 65 71.601562 L 35 71.601562 C 31.359375 71.601562 28.398438 68.640625 28.398438 65 L 28.398438 35 C 28.398438 31.359375 31.359375 28.398438 35 28.398438 L 65 28.398438 M 65 27 L 35 27 C 30.601562 27 27 30.601562 27 35 L 27 65 C 27 69.398438 30.601562 73 35 73 L 65 73 C 69.398438 73 73 69.398438 73 65 L 73 35 C 73 30.601562 69.398438 27 65 27 Z M 65 27 "/>
<path style=" stroke:none;fill-rule:nonzero;fill:rgb(27.843139%,16.862746%,16.078432%);fill-opacity:1;" d="M 64 69 L 36 69 C 33.242188 69 31 66.757812 31 64 L 31 36 C 31 33.242188 33.242188 31 36 31 L 61.375 31 C 61.652344 31 61.875 31.222656 61.875 31.5 C 61.875 31.777344 61.652344 32 61.375 32 L 36 32 C 33.792969 32 32 33.792969 32 36 L 32 64 C 32 66.207031 33.792969 68 36 68 L 64 68 C 66.207031 68 68 66.207031 68 64 L 68 49.625 C 68 49.347656 68.222656 49.125 68.5 49.125 C 68.777344 49.125 69 49.347656 69 49.625 L 69 64 C 69 66.757812 66.757812 69 64 69 Z M 64 69 "/>
<path style=" stroke:none;fill-rule:nonzero;fill:rgb(99.215686%,98.823529%,93.725491%);fill-opacity:1;" d="M 62.5 50 C 62.5 43.097656 56.902344 37.5 50 37.5 C 43.097656 37.5 37.5 43.097656 37.5 50 C 37.5 56.902344 43.097656 62.5 50 62.5 C 51.960938 62.5 53.808594 62.035156 55.460938 61.230469 L 56.5 62.5 L 62.5 62.5 L 59.1875 58.453125 C 61.238281 56.226562 62.5 53.265625 62.5 50 Z M 50 57.5 C 45.859375 57.5 42.5 54.140625 42.5 50 C 42.5 45.859375 45.859375 42.5 50 42.5 C 54.140625 42.5 57.5 45.859375 57.5 50 C 57.5 51.699219 56.925781 53.265625 55.972656 54.523438 L 53.5 51.5 L 47.5 51.5 L 52.148438 57.183594 C 51.46875 57.386719 50.746094 57.5 50 57.5 Z M 50 57.5 "/>
<path style=" stroke:none;fill-rule:nonzero;fill:rgb(27.843139%,16.862746%,16.078432%);fill-opacity:1;" d="M 62.5 63 L 56.5 63 C 56.351562 63 56.207031 62.933594 56.113281 62.816406 L 55.320312 61.847656 C 53.628906 62.613281 51.839844 63 50 63 C 42.832031 63 37 57.167969 37 50 C 37 42.832031 42.832031 37 50 37 C 57.167969 37 63 42.832031 63 50 C 63 53.113281 61.882812 56.101562 59.847656 58.46875 L 62.886719 62.183594 C 63.011719 62.332031 63.035156 62.539062 62.953125 62.714844 C 62.867188 62.890625 62.691406 63 62.5 63 Z M 56.738281 62 L 61.445312 62 L 58.800781 58.769531 C 58.644531 58.578125 58.652344 58.296875 58.820312 58.113281 C 60.871094 55.886719 62 53.007812 62 50 C 62 43.382812 56.617188 38 50 38 C 43.382812 38 38 43.382812 38 50 C 38 56.617188 43.382812 62 50 62 C 51.820312 62 53.582031 61.589844 55.242188 60.78125 C 55.449219 60.679688 55.699219 60.734375 55.847656 60.914062 Z M 50 58 C 45.589844 58 42 54.410156 42 50 C 42 45.589844 45.589844 42 50 42 C 54.410156 42 58 45.589844 58 50 C 58 51.75 57.4375 53.417969 56.371094 54.824219 C 56.277344 54.945312 56.136719 55.019531 55.984375 55.023438 C 55.832031 55.027344 55.683594 54.957031 55.585938 54.839844 L 53.261719 52 L 48.554688 52 L 52.535156 56.867188 C 52.640625 56.996094 52.675781 57.171875 52.628906 57.328125 C 52.578125 57.488281 52.453125 57.613281 52.292969 57.664062 C 51.542969 57.886719 50.773438 58 50 58 Z M 50 43 C 46.140625 43 43 46.140625 43 50 C 43 53.859375 46.140625 57 50 57 C 50.421875 57 50.84375 56.960938 51.257812 56.886719 L 47.113281 51.816406 C 46.992188 51.667969 46.964844 51.460938 47.050781 51.285156 C 47.132812 51.109375 47.308594 51 47.5 51 L 53.5 51 C 53.648438 51 53.792969 51.066406 53.886719 51.183594 L 55.941406 53.691406 C 56.636719 52.582031 57 51.316406 57 50 C 57 46.140625 53.859375 43 50 43 Z M 50 43 "/>
<path style=" stroke:none;fill-rule:nonzero;fill:rgb(27.843139%,16.862746%,16.078432%);fill-opacity:1;" d="M 68.5 47.375 C 68.222656 47.375 68 47.152344 68 46.875 L 68 43 C 68 42.722656 68.222656 42.5 68.5 42.5 C 68.777344 42.5 69 42.722656 69 43 L 69 46.875 C 69 47.152344 68.777344 47.375 68.5 47.375 Z M 68.5 47.375 "/>
<path style=" stroke:none;fill-rule:nonzero;fill:rgb(27.843139%,16.862746%,16.078432%);fill-opacity:1;" d="M 68.5 40.5 C 68.222656 40.5 68 40.277344 68 40 L 68 38 C 68 37.722656 68.222656 37.5 68.5 37.5 C 68.777344 37.5 69 37.722656 69 38 L 69 40 C 69 40.277344 68.777344 40.5 68.5 40.5 Z M 68.5 40.5 "/>
</g>
</svg>
